<svg xmlns="http://www.w3.org/2000/svg" xmlns:xlink="http://www.w3.org/1999/xlink" width="45mm" height="30mm" viewBox="-22500 -12500 45000 30000" fill="#050506" stroke="#050506" color="#050506" stroke-linecap="round" stroke-linejoin="round" stroke-width="0" fill-rule="evenodd"><defs><circle cx="0" cy="0" r="550" id="tAKIRR7ULlQb_pad-79"/><circle cx="0" cy="0" r="1599.995" id="tAKIRR7ULlQb_pad-80"/><circle cx="0" cy="0" r="1599.995" id="tAKIRR7ULlQb_pad-81"/><circle cx="0" cy="0" r="950" id="tAKIRR7ULlQb_pad-82"/><circle cx="0" cy="0" r="1599.995" id="tAKIRR7ULlQb_pad-83"/><circle cx="0" cy="0" r="1599.995" id="tAKIRR7ULlQb_pad-84"/><circle cx="0" cy="0" r="550" id="tAKIRR7ULlQb_pad-85"/><circle cx="0" cy="0" r="177.8" id="tAKIRR7ULlQb_pad-86"/><circle cx="0" cy="0" r="355.6" id="tAKIRR7ULlQb_pad-87"/></defs><g transform="translate(0,5000) scale(1,-1)" fill="currentColor" stroke="currentColor"><use xlink:href="#tAKIRR7ULlQb_pad-79" x="5588" y="-10414"/><use xlink:href="#tAKIRR7ULlQb_pad-79" x="15621" y="-10414"/><use xlink:href="#tAKIRR7ULlQb_pad-79" x="-14859" y="-10541"/><use xlink:href="#tAKIRR7ULlQb_pad-79" x="-8509" y="14986"/><use xlink:href="#tAKIRR7ULlQb_pad-79" x="3048" y="-10414"/><use xlink:href="#tAKIRR7ULlQb_pad-79" x="-2032" y="-10414"/><use xlink:href="#tAKIRR7ULlQb_pad-79" x="508" y="-10414"/><use xlink:href="#tAKIRR7ULlQb_pad-79" x="13081" y="-10414"/><use xlink:href="#tAKIRR7ULlQb_pad-79" x="-13589" y="14986"/><use xlink:href="#tAKIRR7ULlQb_pad-79" x="-7239" y="-10541"/><use xlink:href="#tAKIRR7ULlQb_pad-79" x="-9779" y="-10541"/><use xlink:href="#tAKIRR7ULlQb_pad-79" x="-13589" y="12446"/><use xlink:href="#tAKIRR7ULlQb_pad-79" x="-12319" y="-10541"/><use xlink:href="#tAKIRR7ULlQb_pad-79" x="-11049" y="14986"/><use xlink:href="#tAKIRR7ULlQb_pad-79" x="-8509" y="12446"/><use xlink:href="#tAKIRR7ULlQb_pad-79" x="-11049" y="12446"/><use xlink:href="#tAKIRR7ULlQb_pad-79" x="10541" y="-10414"/><use xlink:href="#tAKIRR7ULlQb_pad-80" x="20000" y="15000"/><use xlink:href="#tAKIRR7ULlQb_pad-81" x="-20000" y="15000"/><use xlink:href="#tAKIRR7ULlQb_pad-82" x="-19558" y="976"/><use xlink:href="#tAKIRR7ULlQb_pad-82" x="-19558" y="-4024"/><use xlink:href="#tAKIRR7ULlQb_pad-83" x="-20000" y="-10000"/><use xlink:href="#tAKIRR7ULlQb_pad-84" x="20000" y="-10000"/><use xlink:href="#tAKIRR7ULlQb_pad-85" x="20574" y="254"/><use xlink:href="#tAKIRR7ULlQb_pad-85" x="20574" y="2794"/><use xlink:href="#tAKIRR7ULlQb_pad-85" x="20574" y="5334"/><use xlink:href="#tAKIRR7ULlQb_pad-86" x="5334" y="8509"/><use xlink:href="#tAKIRR7ULlQb_pad-86" x="6350" y="10414"/><use xlink:href="#tAKIRR7ULlQb_pad-86" x="6858" y="12065"/><use xlink:href="#tAKIRR7ULlQb_pad-86" x="-6790.63" y="-186.63"/><use xlink:href="#tAKIRR7ULlQb_pad-86" x="-5207" y="1143"/><use xlink:href="#tAKIRR7ULlQb_pad-86" x="-4853.15" y="-1673.82"/><use xlink:href="#tAKIRR7ULlQb_pad-86" x="-3691.72" y="-4199.72"/><use xlink:href="#tAKIRR7ULlQb_pad-86" x="-2622.1" y="-7067.1"/><use xlink:href="#tAKIRR7ULlQb_pad-86" x="-6223" y="-3937"/><use xlink:href="#tAKIRR7ULlQb_pad-86" x="-190.5" y="-5499.1"/><use xlink:href="#tAKIRR7ULlQb_pad-86" x="19431" y="-4572"/><use xlink:href="#tAKIRR7ULlQb_pad-86" x="-10060.02" y="-191.13"/><use xlink:href="#tAKIRR7ULlQb_pad-86" x="8128" y="-2286"/><use xlink:href="#tAKIRR7ULlQb_pad-86" x="-2667" y="254"/><use xlink:href="#tAKIRR7ULlQb_pad-86" x="-2330.9" y="-4235.9"/><use xlink:href="#tAKIRR7ULlQb_pad-86" x="11557" y="11049"/><use xlink:href="#tAKIRR7ULlQb_pad-86" x="-1778" y="-127"/><use xlink:href="#tAKIRR7ULlQb_pad-86" x="-889" y="9652"/><use xlink:href="#tAKIRR7ULlQb_pad-86" x="508" y="9398"/><use xlink:href="#tAKIRR7ULlQb_pad-86" x="13716" y="-4699"/><use xlink:href="#tAKIRR7ULlQb_pad-86" x="11684" y="-4445"/><use xlink:href="#tAKIRR7ULlQb_pad-86" x="889" y="-5499.1"/><use xlink:href="#tAKIRR7ULlQb_pad-86" x="-5334" y="-7150.1"/><use xlink:href="#tAKIRR7ULlQb_pad-86" x="-8382" y="-8128"/><use xlink:href="#tAKIRR7ULlQb_pad-86" x="-11684" y="6350"/><use xlink:href="#tAKIRR7ULlQb_pad-86" x="8128" y="-4699"/><use xlink:href="#tAKIRR7ULlQb_pad-86" x="-11303" y="-1016"/><use xlink:href="#tAKIRR7ULlQb_pad-86" x="-3524" y="-825.78"/><use xlink:href="#tAKIRR7ULlQb_pad-86" x="-254" y="3556"/><use xlink:href="#tAKIRR7ULlQb_pad-86" x="-2921" y="1270"/><use xlink:href="#tAKIRR7ULlQb_pad-86" x="6604" y="-4064"/><use xlink:href="#tAKIRR7ULlQb_pad-86" x="-6604" y="4064"/><use xlink:href="#tAKIRR7ULlQb_pad-86" x="11249.2" y="5795.94"/><use xlink:href="#tAKIRR7ULlQb_pad-86" x="-3876.95" y="1336.95"/><use xlink:href="#tAKIRR7ULlQb_pad-86" x="14497.68" y="5099.68"/><use xlink:href="#tAKIRR7ULlQb_pad-86" x="13081" y="5080"/><use xlink:href="#tAKIRR7ULlQb_pad-86" x="-8128" y="-5715"/><use xlink:href="#tAKIRR7ULlQb_pad-86" x="-5588" y="4064"/><use xlink:href="#tAKIRR7ULlQb_pad-86" x="9838.62" y="5274.37"/><use xlink:href="#tAKIRR7ULlQb_pad-86" x="7874" y="5207"/><use xlink:href="#tAKIRR7ULlQb_pad-86" x="6477" y="5143.5"/><use xlink:href="#tAKIRR7ULlQb_pad-86" x="15748" y="-4826"/><use xlink:href="#tAKIRR7ULlQb_pad-87" x="-18542" y="5334"/></g></svg>