<svg xmlns="http://www.w3.org/2000/svg" xmlns:xlink="http://www.w3.org/1999/xlink" width="45mm" height="30mm" viewBox="-22500 -12500 45000 30000" fill="#d9a441" stroke="#d9a441" color="#d9a441" stroke-linecap="round" stroke-linejoin="round" stroke-width="0" fill-rule="evenodd"><defs><mask id="glU35-i_-EEk_clear-1" fill="#000" stroke="#000"><g><rect x="-22500" y="-12500" width="45000" height="30000" fill="#fff"/><path d="M -11049 15971.83 -11304.15 15938.24 -11541.92 15839.75 -11746.09 15683.09 -11902.75 15478.92 -12001.24 15241.15 -12034.83 14986 -12001.24 14730.85 -11902.75 14493.08 -11746.09 14288.91 -11541.92 14132.25 -11304.15 14033.76 -11049 14000.17 -10793.85 14033.76 -10556.08 14132.25 -10351.91 14288.91 -10195.25 14493.08 -10096.76 14730.85 -10063.17 14986 -10096.76 15241.15 -10195.25 15478.92 -10351.91 15683.09 -10556.08 15839.75 -10793.85 15938.24 -11049 15971.83"/><path d="M -13589 15971.83 -13844.15 15938.24 -14081.92 15839.75 -14286.09 15683.09 -14442.75 15478.92 -14541.24 15241.15 -14574.83 14986 -14541.24 14730.85 -14481.88 14587.55 -17138.22 11931.22 -17214 11817.79 -17240.62 11684 -17240.62 10277.52 -17475.28 10180.32 -17755.57 10460.61 -17868.99 10536.39 -18002.79 10563.01 -18077.16 10563.01 -18077.16 11139 -18098.69 11247.24 -18160 11338.99 -18251.76 11400.3 -18360 11421.83 -19110 11421.83 -19218.24 11400.3 -19309.99 11338.99 -19371.3 11247.24 -19392.83 11139 -19392.83 9689 -19371.3 9580.76 -19309.99 9489.01 -19218.24 9427.7 -19110 9406.17 -18360 9406.17 -18251.76 9427.7 -18160 9489.01 -18148.81 9505.76 -17906.56 9565.11 -17843.85 9560.01 -17240.62 8956.78 -17240.62 7129.82 -18288.97 6081.47 -18336.45 6101.13 -18542 6128.19 -18747.55 6101.13 -18939.1 6021.79 -19103.58 5895.58 -19229.79 5731.1 -19309.13 5539.55 -19336.19 5334 -19309.13 5128.45 -19229.79 4936.9 -19103.58 4772.42 -18939.1 4646.21 -18747.55 4566.87 -18542 4539.81 -18336.45 4566.87 -18144.9 4646.21 -17980.42 4772.42 -17854.21 4936.9 -17774.87 5128.45 -17747.81 5334 -17774.87 5539.55 -17794.53 5587.03 -16643.78 6737.78 -16568 6851.21 -16541.38 6985 -16541.38 6985.01 -16541.38 9101.6 -16541.38 11539.18 -14820.4 13260.16 -14566.4 13154.95 -14566.4 11468.6 -12611.6 11468.6 -12611.6 13423.4 -14297.95 13423.4 -14403.16 13677.4 -13987.45 14093.12 -13844.15 14033.76 -13589 14000.17 -13333.85 14033.76 -13096.08 14132.25 -12891.91 14288.91 -12735.25 14493.08 -12636.76 14730.85 -12603.17 14986 -12636.76 15241.15 -12735.25 15478.92 -12891.91 15683.09 -13096.08 15839.75 -13333.85 15938.24 -13589 15971.83"/><path d="M -8509 13431.83 -8764.15 13398.24 -9001.92 13299.75 -9206.09 13143.09 -9362.75 12938.92 -9461.24 12701.15 -9494.83 12446 -9461.24 12190.85 -9401.89 12047.55 -10120.22 11329.22 -10196 11215.79 -10222.62 11082 -10222.62 8826.4 -11025.4 8826.4 -11025.4 6921.6 -8720.6 6921.6 -8720.6 8826.4 -9523.38 8826.4 -9523.38 10937.18 -8907.45 11553.11 -8764.15 11493.76 -8509 11460.17 -8253.85 11493.76 -8016.08 11592.25 -7811.91 11748.91 -7655.25 11953.08 -7556.76 12190.85 -7523.17 12446 -7556.76 12701.15 -7655.25 12938.92 -7811.91 13143.09 -8016.08 13299.75 -8253.85 13398.24 -8509 13431.83"/><path d="M -11049 13431.83 -11304.15 13398.24 -11541.92 13299.75 -11746.09 13143.09 -11902.75 12938.92 -12001.24 12701.15 -12034.83 12446 -12001.24 12190.85 -11902.75 11953.08 -11746.09 11748.91 -11541.92 11592.25 -11304.15 11493.76 -11049 11460.17 -10793.85 11493.76 -10556.08 11592.25 -10351.91 11748.91 -10195.25 11953.08 -10096.76 12190.85 -10063.17 12446 -10096.76 12701.15 -10195.25 12938.92 -10351.91 13143.09 -10556.08 13299.75 -10793.85 13398.24 -11049 13431.83"/><path d="M 10160 17240.62 2413 17240.62 2279.21 17214 2165.78 17138.22 2165.78 17138.21 -2249.22 12723.22 -2325 12609.79 -2351.62 12476 -2351.62 12257.4 -2454.4 12257.4 -2454.4 11669.36 -5315 11669.36 -5473.57 11637.82 -5608 11548 -7308.93 9847.07 -7398.75 9712.64 -7430.29 9554.07 -7430.29 6998.71 -11181.64 3247.36 -11271.46 3112.93 -11303 2954.36 -11303 -419.78 -11368.37 -485.15 -11511.12 -513.55 -11687.56 -631.44 -11805.45 -807.88 -11846.85 -1016 -11805.45 -1224.12 -11687.56 -1400.56 -11511.12 -1518.45 -11303 -1559.85 -11160.62 -1531.53 -11126.27 -1538.36 -9375.4 -1538.36 -9375.4 -1551.4 -8507.04 -1551.4 -8467 -1559.36 -7267.9 -1559.36 -5740.26 -3087 -5605.83 -3176.82 -5447.26 -3208.36 -2076.64 -3208.36 -1489 -3796 -1354.57 -3885.82 -1196 -3917.36 -1035.4 -3917.36 -1035.4 -4532.27 -1035.41 -4556.67 -1036.65 -4580.67 -1079.97 -4762.03 -1261.33 -4805.35 -1285.33 -4806.59 -1309.73 -4806.6 -1788.49 -4806.6 -1814.36 -4776.09 -1901 -4552.6 -1828.45 -4444.02 -1787.05 -4235.9 -1828.45 -4027.78 -1946.34 -3851.34 -2122.78 -3733.45 -2330.9 -3692.05 -2539.02 -3733.45 -2715.46 -3851.34 -2833.35 -4027.78 -2874.75 -4235.9 -2833.35 -4444.02 -2760.81 -4552.6 -2847.45 -4776.09 -2873.32 -4806.6 -3182.7 -4806.6 -3249.84 -4686.66 -3285.99 -4552.6 -3189.27 -4407.84 -3147.87 -4199.72 -3189.27 -3991.6 -3307.16 -3815.16 -3483.6 -3697.27 -3691.72 -3655.87 -3899.84 -3697.27 -4076.28 -3815.16 -4194.17 -3991.6 -4235.57 -4199.72 -4194.17 -4407.84 -4097.45 -4552.6 -4163.28 -4796.75 -4167.31 -4806.6 -5920.88 -4806.6 -5920.88 -4376.65 -5838.44 -4321.56 -5720.55 -4145.12 -5679.15 -3937 -5720.55 -3728.88 -5838.44 -3552.44 -6014.88 -3434.55 -6223 -3393.15 -6431.12 -3434.55 -6607.56 -3552.44 -6725.45 -3728.88 -6766.85 -3937 -6725.45 -4145.12 -6620.12 -4302.76 -6620.12 -4806.6 -7326.27 -4806.6 -7350.67 -4806.59 -7374.67 -4805.35 -7556.03 -4762.03 -7599.35 -4580.67 -7600.59 -4556.67 -7600.6 -4532.27 -7600.6 -3951.4 -7600.6 -3151.4 -7600.6 -2296.6 -9375.4 -2296.6 -9375.4 -3174.38 -10044.59 -3174.38 -11189.1 -2029.87 -11302.53 -1954.08 -11436.32 -1927.47 -13186.03 -1927.47 -13527.88 -1585.61 -13527.88 -1570.51 -13527.88 -1570.5 -13534.6 -1536.72 -13534.6 -333.6 -13912.38 -333.6 -13912.38 -59.32 -13084.19 768.88 -13082.5 768.88 -13080.96 769.19 -12048 769.19 -11920.26 794.6 -11811.96 866.96 -11739.6 975.26 -11714.19 1103 -11714.19 2453 -11739.6 2580.74 -11811.96 2689.04 -11920.26 2761.4 -12048 2786.81 -13098 2786.81 -13225.74 2761.4 -13334.04 2689.04 -13406.4 2580.74 -13431.81 2453 -13431.81 1395.39 -13476.22 1365.72 -13476.23 1365.71 -14509.22 332.72 -14585.01 219.3 -14611.62 85.5 -14611.62 -333.6 -14989.4 -333.6 -14989.4 -2038.4 -14063.97 -2038.4 -13578.07 -2524.3 -13464.64 -2600.09 -13389.4 -2615.06 -13389.4 -4238.4 -12668.62 -4238.4 -12668.62 -4960.19 -12844 -4960.19 -12971.74 -4985.6 -13080.04 -5057.96 -13152.4 -5166.26 -13177.81 -5294 -13177.81 -6644 -13152.4 -6771.74 -13080.04 -6880.04 -12971.74 -6952.4 -12844 -6977.81 -11794 -6977.81 -11666.26 -6952.4 -11557.96 -6880.04 -11485.6 -6771.74 -11460.19 -6644 -11460.19 -5294 -11485.6 -5166.26 -11557.96 -5057.96 -11666.26 -4985.6 -11794 -4960.19 -11969.38 -4960.19 -11969.38 -4238.4 -11934.6 -4238.4 -11934.6 -3735.62 -11226.56 -3735.62 -10390.97 -4571.21 -10390.96 -4571.22 -10277.54 -4647 -10143.75 -4673.62 -9375.4 -4673.62 -9375.4 -4751.4 -7819.72 -4751.4 -7795.33 -4751.4 -7771.32 -4752.64 -7589.96 -4795.96 -7546.64 -4977.32 -7545.4 -5001.33 -7545.4 -5025.72 -7545.4 -5180.54 -7603.99 -5224.88 -7799.4 -5293.05 -7919.88 -5212.55 -8128 -5171.15 -8336.12 -5212.55 -8512.56 -5330.44 -8630.45 -5506.88 -8671.85 -5715 -8630.45 -5923.12 -8512.56 -6099.56 -8336.12 -6217.45 -8128 -6258.85 -7919.88 -6217.45 -7799.4 -6136.95 -7603.99 -6205.12 -7545.4 -6249.46 -7545.4 -6581.4 -5783.12 -6581.4 -5783.12 -6862.16 -5836.45 -6941.98 -5877.85 -7150.1 -5836.45 -7358.22 -5718.56 -7534.66 -5542.12 -7652.55 -5334 -7693.95 -5125.88 -7652.55 -4949.44 -7534.66 -4831.55 -7358.22 -4823.61 -7318.33 -4548.01 -7234.73 -3488.74 -8294 -3354.31 -8383.82 -3195.74 -8415.36 9099.36 -8415.36 10014.46 -9330.46 10025.92 -9392.82 9999.25 -9629.23 9861.74 -9734.74 9709.08 -9933.69 9613.12 -10165.37 9580.38 -10414 9613.12 -10662.63 9709.08 -10894.31 9753.38 -10952.04 9628.12 -11206.04 3960.88 -11206.04 3835.62 -10952.04 3879.92 -10894.31 3975.88 -10662.63 4008.62 -10414 3975.88 -10165.37 3879.92 -9933.69 3727.26 -9734.74 3528.31 -9582.08 3296.63 -9486.12 3048 -9453.38 2799.37 -9486.12 2567.69 -9582.08 2368.74 -9734.74 2216.08 -9933.69 2120.12 -10165.37 2087.38 -10414 2120.12 -10662.63 2216.08 -10894.31 2260.38 -10952.04 2135.12 -11206.04 1420.88 -11206.04 1295.62 -10952.04 1339.92 -10894.31 1435.88 -10662.63 1468.62 -10414 1435.88 -10165.37 1339.92 -9933.69 1187.26 -9734.74 988.31 -9582.08 756.63 -9486.12 508 -9453.38 259.37 -9486.12 27.69 -9582.08 -171.26 -9734.74 -323.92 -9933.69 -419.88 -10165.37 -452.62 -10414 -419.88 -10662.63 -323.92 -10894.31 -279.62 -10952.04 -404.88 -11206.04 -653.96 -11206.04 -1079.6 -10780.4 -1079.6 -9461.6 -2984.4 -9461.6 -2984.4 -10126.64 -6286.6 -10126.64 -6286.6 -9588.6 -8191.4 -9588.6 -8191.4 -11493.4 -6286.6 -11493.4 -6286.6 -10955.36 -2984.4 -10955.36 -2984.4 -11366.4 -1665.6 -11366.4 -1118.6 -11913.4 -984.17 -12003.22 -825.6 -12034.76 11239.6 -12034.76 11398.17 -12003.22 11532.6 -11913.4 12355.75 -11090.25 12401.74 -11093.26 12600.69 -11245.92 12832.37 -11341.88 13081 -11374.62 13329.63 -11341.88 13561.31 -11245.92 13760.26 -11093.26 13912.92 -10894.31 14008.88 -10662.63 14041.62 -10414 14008.88 -10165.37 13912.92 -9933.69 13760.26 -9734.74 13561.31 -9582.08 13329.63 -9486.12 13081 -9453.38 12832.37 -9486.12 12600.69 -9582.08 12401.74 -9734.74 12249.08 -9933.69 12153.12 -10165.37 12145.02 -10226.89 12078.49 -10240.12 11944.06 -10329.94 11742.32 -10531.69 11501.62 -10414 11468.88 -10165.37 11372.92 -9933.69 11220.26 -9734.74 11021.31 -9582.08 10930.36 -9544.41 10930.36 -9246 10898.82 -9087.43 10809 -8953 9572.93 -7716.93 9567.53 -7702.65 9563.19 -7685.09 9554.81 -7446.81 9599.63 -7379.73 9615.37 -7300.6 9615.37 -6394.88 9623.1 -6356 9623.1 -6029.37 9688.63 -5983.46 9942.63 -6115.64 9942.63 -6317.12 9934.9 -6356 9934.9 -7366 9971.36 -7549.35 10075.22 -7704.78 10964.22 -8593.78 11119.66 -8697.64 11303 -8734.1 17653 -8734.1 17836.35 -8697.64 17991.78 -8593.78 20912.78 -5672.78 21016.64 -5517.34 21053.1 -5334 21053.1 -698.4 21526.4 -698.4 21526.4 1206.4 19621.6 1206.4 19621.6 -698.4 20094.9 -698.4 20094.9 -5135.55 17454.55 -7775.9 11755.84 -7775.9 11746.14 -7761.37 11881.9 -7507.37 11948.6 -7507.37 12027.73 -7491.63 12094.81 -7446.81 12139.63 -7379.73 12155.37 -7300.6 12155.37 -5411.4 12139.63 -5332.27 12094.81 -5265.19 12033.62 -5224.3 12033.62 -4852.91 12068.56 -4829.56 12186.45 -4653.12 12227.85 -4445 12186.45 -4236.88 12136.49 -4162.1 12262.96 -3908.1 13656.02 -3908.1 13681.03 -4162.1 13507.88 -4196.55 13331.44 -4314.44 13258.97 -4422.9 13128.31 -4448.89 13014.88 -4524.68 12732.13 -4807.43 12656.35 -4920.85 12629.73 -5054.65 12629.73 -5216.5 12610.27 -5220.37 12543.19 -5265.19 12498.37 -5332.27 12482.63 -5411.4 12482.63 -7300.6 12498.37 -7379.73 12543.19 -7446.81 12610.27 -7491.63 12689.4 -7507.37 13218.6 -7507.37 13297.73 -7491.63 13364.81 -7446.81 13409.63 -7379.73 13425.37 -7300.6 13425.37 -5553.47 13479.66 -5499.58 13602.27 -5441.69 13752.63 -5553.81 13752.63 -7300.6 13768.37 -7379.73 13813.19 -7446.81 13880.27 -7491.63 13959.4 -7507.37 14488.6 -7507.37 14567.73 -7491.63 14634.81 -7446.81 14679.63 -7379.73 14695.37 -7300.6 14695.37 -5790.63 15197.04 -5288.96 15480.77 -5288.96 15539.88 -5328.45 15748 -5369.85 15956.12 -5328.45 16132.56 -5210.56 16250.45 -5034.12 16291.85 -4826 16250.45 -4617.88 16132.56 -4441.44 15956.12 -4323.55 15748 -4282.15 15539.88 -4323.55 15363.44 -4441.44 15350.88 -4460.23 15025.4 -4460.23 14866.83 -4491.78 14732.4 -4581.6 14494.95 -4819.05 14259.85 -4699 14218.45 -4490.88 14100.56 -4314.44 13924.12 -4196.55 13750.97 -4162.1 13775.98 -3908.1 14859 -3908.1 15042.35 -3871.64 15197.78 -3767.78 17229.78 -1735.78 17333.64 -1580.34 17370.1 -1397 17370.1 436.55 19248.45 2314.9 19741.58 2314.9 19742.08 2313.69 19894.74 2114.74 20093.69 1962.08 20325.37 1866.12 20574 1833.38 20822.63 1866.12 21054.31 1962.08 21253.26 2114.74 21405.92 2313.69 21501.88 2545.37 21534.62 2794 21501.88 3042.63 21405.92 3274.31 21253.26 3473.26 21054.31 3625.92 20822.63 3721.88 20574 3754.62 20325.37 3721.88 20093.69 3625.92 19894.74 3473.26 19742.08 3274.31 19741.58 3273.1 19050 3273.1 18866.66 3236.64 18711.22 3132.78 16552.22 973.78 16448.36 818.35 16411.9 635 16411.9 -1198.55 14660.55 -2949.9 11391 -2949.9 11207.65 -2986.36 11052.22 -3090.22 8937.82 -5204.63 8879.4 -5204.63 8800.27 -5220.37 8733.19 -5265.19 8688.37 -5332.27 8672.63 -5411.4 8672.63 -5637.11 8664.9 -5676 8664.9 -6356 8672.63 -6394.88 8672.63 -7300.6 8533.95 -7347.22 8345.37 -7138.61 8345.37 -6245.31 8348.12 -6231.5 8348.12 -5193.44 8512.56 -5083.56 8630.45 -4907.12 8671.85 -4699 8630.45 -4490.88 8512.56 -4314.44 8336.12 -4196.55 8128 -4155.15 7919.88 -4196.55 7743.44 -4314.44 7625.55 -4490.88 7584.15 -4699 7625.55 -4907.12 7648.88 -4942.04 7648.88 -5204.63 7609.4 -5204.63 7530.27 -5220.37 7463.19 -5265.19 7418.37 -5332.27 7402.63 -5411.4 7402.63 -7300.6 7263.95 -7347.22 7075.37 -7138.61 7075.37 -5411.4 7059.63 -5332.27 7014.81 -5265.19 6953.62 -5224.3 6953.62 -4471.91 6988.56 -4448.56 7106.45 -4272.12 7147.85 -4064 7106.45 -3855.88 6988.56 -3679.44 6812.12 -3561.55 6604 -3520.15 6395.88 -3561.55 6219.44 -3679.44 6101.55 -3855.88 6060.15 -4064 6101.55 -4272.12 6219.44 -4448.56 6254.38 -4471.91 6254.38 -5224.3 6193.19 -5265.19 6148.37 -5332.27 6132.63 -5411.4 6132.63 -7300.6 5993.95 -7347.22 5805.37 -7138.61 5805.37 -5411.4 5789.63 -5332.27 5744.81 -5265.19 5683.62 -5224.3 5683.62 -4826 5657 -4692.21 5581.22 -4578.78 5581.21 -4578.78 4286.62 -3284.18 4286.62 4642.18 5357.06 5712.63 5598.6 5712.63 5677.73 5728.37 5744.81 5773.19 5789.63 5840.27 5805.37 5919.4 5805.37 7808.6 5789.63 7887.73 5744.81 7954.81 5779.64 8215.86 5836.45 8300.88 5877.85 8509 5836.45 8717.12 5718.56 8893.56 5542.13 9011.45 5445.98 9233.1 5489.01 9302.38 9017 9302.38 9150.79 9329 9264.22 9404.78 10779.77 10920.33 11054.55 10840.87 11172.44 10664.44 11348.88 10546.55 11557 10505.15 11765.12 10546.55 11941.56 10664.44 12059.45 10840.88 12100.85 11049 12059.45 11257.12 11962.12 11402.79 11962.12 12025.35 12215.6 12026.6 12374.4 12026.6 13120.4 12026.6 13120.4 13881.4 13017.62 13881.4 13017.62 14383 12991 14516.8 12915.22 14630.22 12915.21 14630.23 10407.22 17138.22 10293.8 17214 10160 17240.62"/><path d="M -20260 11421.83 -21010 11421.83 -21118.24 11400.3 -21210 11338.99 -21271.31 11247.24 -21292.84 11139 -21292.84 9689 -21271.31 9580.76 -21210 9489.01 -21118.24 9427.7 -21010 9406.17 -20984.62 9406.17 -20984.62 8372.4 -21614.4 8372.4 -21614.4 6867.6 -20109.6 6867.6 -20109.6 8372.4 -20285.38 8372.4 -20285.38 9406.17 -20260 9406.17 -20151.76 9427.7 -20060.01 9489.01 -19998.7 9580.76 -19977.17 9689 -19977.17 11139 -19998.7 11247.24 -20060.01 11338.99 -20151.76 11400.3 -20260 11421.83"/><path d="M -11684 6893.85 -11892.12 6852.45 -12068.56 6734.56 -12186.45 6558.12 -12227.85 6350 -12186.45 6141.88 -12068.56 5965.44 -11892.12 5847.55 -11684 5806.15 -11475.88 5847.55 -11299.44 5965.44 -11181.55 6141.88 -11140.15 6350 -11181.55 6558.12 -11299.44 6734.56 -11475.88 6852.45 -11684 6893.85"/><path d="M 8138.6 8015.37 7609.4 8015.37 7530.27 7999.63 7463.19 7954.81 7418.37 7887.73 7402.63 7808.6 7402.63 5919.4 7418.37 5840.27 7463.19 5773.19 7435.43 5510.73 7371.55 5415.12 7330.15 5207 7371.55 4998.88 7489.44 4822.44 7665.88 4704.55 7874 4663.15 8082.12 4704.55 8258.56 4822.44 8376.45 4998.88 8417.85 5207 8376.45 5415.12 8312.57 5510.73 8284.81 5773.19 8329.63 5840.27 8345.37 5919.4 8345.37 7808.6 8329.63 7887.73 8284.81 7954.81 8217.73 7999.63 8138.6 8015.37"/><path d="M 6868.6 8015.37 6339.4 8015.37 6260.27 7999.63 6193.19 7954.81 6148.37 7887.73 6132.63 7808.6 6132.63 5919.4 6148.37 5840.27 6190.88 5776.64 6190.88 5593.84 6092.44 5528.06 5974.55 5351.62 5933.15 5143.5 5974.55 4935.38 6092.44 4758.94 6268.88 4641.05 6477 4599.65 6685.12 4641.05 6861.56 4758.94 6979.45 4935.38 7020.85 5143.5 6979.45 5351.62 6896.03 5476.47 6944.67 5713.48 6948.24 5728.71 7014.81 5773.19 7059.63 5840.27 7075.37 5919.4 7075.37 7808.6 7059.63 7887.73 7014.81 7954.81 6947.73 7999.63 6868.6 8015.37"/><path d="M 14488.6 8015.37 13959.4 8015.37 13880.27 7999.63 13813.19 7954.81 13768.37 7887.73 13752.63 7808.6 13752.63 5919.4 13768.37 5840.27 13813.19 5773.19 13870.64 5734.8 13870.64 5381.1 13902.18 5222.53 13960.81 5134.78 13953.83 5099.68 13995.23 4891.56 14113.12 4715.12 14289.56 4597.23 14497.68 4555.83 14705.8 4597.23 14882.24 4715.12 15000.14 4891.56 15041.53 5099.68 15000.14 5307.8 14882.24 5484.24 14705.8 5602.14 14699.36 5603.42 14699.36 6803 14695.37 6823.07 14695.37 7808.6 14679.63 7887.73 14634.81 7954.81 14567.73 7999.63 14488.6 8015.37"/><path d="M 13218.6 8015.37 12689.4 8015.37 12610.27 7999.63 12543.19 7954.81 12498.37 7887.73 12482.63 7808.6 12482.63 5919.4 12498.37 5840.27 12543.19 5773.19 12610.27 5728.37 12667.88 5716.91 12667.88 5421.82 12578.55 5288.12 12537.15 5080 12578.55 4871.88 12696.44 4695.44 12872.88 4577.55 13081 4536.15 13289.12 4577.55 13465.56 4695.44 13583.45 4871.88 13624.85 5080 13583.45 5288.12 13465.56 5464.56 13367.12 5530.34 13367.12 5776.64 13409.63 5840.27 13425.37 5919.4 13425.37 7808.6 13409.63 7887.73 13364.81 7954.81 13297.73 7999.63 13218.6 8015.37"/><path d="M 17145 9242.1 10846.98 9242.1 10663.63 9205.64 10508.2 9101.78 10136.22 8729.8 10032.36 8574.37 9995.9 8391.02 9995.9 7943.89 9958.37 7887.73 9942.63 7808.6 9942.63 7727.82 9937.39 7701.5 9937.39 6876.56 9934.9 6864 9942.63 6825.11 9942.63 6065.65 9930.37 6054.06 9872.12 6042.41 9618.12 6250.65 9618.12 6739.5 9615.37 6753.31 9615.37 7808.6 9599.63 7887.73 9554.81 7954.81 9487.73 7999.63 9408.6 8015.37 8879.4 8015.37 8800.27 7999.63 8733.19 7954.81 8688.37 7887.73 8672.63 7808.6 8672.63 5919.4 8688.37 5840.27 8733.19 5773.19 8800.27 5728.37 8879.4 5712.63 8918.88 5712.63 8918.88 5684.18 8945.5 5550.39 9021.28 5436.97 9244.47 5213.78 9316.38 5165.73 9336.17 5066.25 9454.07 4889.81 9630.5 4771.92 9838.62 4730.52 10046.75 4771.92 10223.18 4889.81 10341.08 5066.25 10382.47 5274.37 10353.29 5421.08 10501.35 5648.26 10725.7 5681.15 10728.56 5679.24 10746.75 5587.82 10864.64 5411.39 11041.08 5293.49 11249.2 5252.1 11457.32 5293.49 11633.76 5411.39 11751.65 5587.82 11770.97 5684.97 11798.63 5712.63 11948.6 5712.63 12027.73 5728.37 12094.81 5773.19 12139.63 5840.27 12155.37 5919.4 12155.37 7808.6 12139.63 7887.73 12094.81 7954.81 12027.73 7999.63 11948.6 8015.37 11419.4 8015.37 11340.27 7999.63 11273.19 7954.81 11228.37 7887.73 11212.63 7808.6 11212.63 6571.67 11139.37 6531.05 10885.37 6680.65 10885.37 6815.05 10895.6 6866.5 10895.6 7543.68 10917.64 7576.65 10954.11 7760 10954.11 8192.57 11045.43 8283.9 16946.55 8283.9 19646.61 5583.83 19646.12 5582.63 19613.38 5334 19646.12 5085.37 19742.08 4853.69 19894.74 4654.74 20093.69 4502.08 20325.37 4406.12 20574 4373.38 20822.63 4406.12 21054.31 4502.08 21253.26 4654.74 21405.92 4853.69 21501.88 5085.37 21534.62 5334 21501.88 5582.63 21405.92 5814.31 21253.26 6013.26 21054.31 6165.92 20822.63 6261.88 20574 6294.62 20325.37 6261.88 20324.17 6261.39 17483.78 9101.78 17328.35 9205.64 17145 9242.1"/><path d="M -17980.6 -2446.6 -21135.4 -2446.6 -21135.4 -5601.4 -18749.72 -5601.4 -15813.16 -8537.96 -15636.72 -8655.85 -15428.6 -8697.25 -8407.4 -8697.25 -8199.28 -8655.85 -8022.84 -8537.96 -7997.44 -8512.56 -7879.55 -8336.12 -7838.15 -8128 -7879.55 -7919.88 -7997.44 -7743.44 -8173.88 -7625.55 -8382 -7584.15 -8509.7 -7609.55 -15203.33 -7609.55 -17980.6 -4832.28 -17980.6 -2446.6"/><path d="M -9779 -9580.38 -10027.63 -9613.12 -10259.31 -9709.08 -10458.26 -9861.74 -10610.92 -10060.69 -10706.88 -10292.37 -10739.62 -10541 -10706.88 -10789.63 -10610.92 -11021.31 -10458.26 -11220.26 -10259.31 -11372.92 -10027.63 -11468.88 -9779 -11501.62 -9530.37 -11468.88 -9298.69 -11372.92 -9099.74 -11220.26 -8947.08 -11021.31 -8851.12 -10789.63 -8818.38 -10541 -8851.12 -10292.37 -8947.08 -10060.69 -9099.74 -9861.74 -9298.69 -9709.08 -9530.37 -9613.12 -9779 -9580.38"/><path d="M -12319 -9580.38 -12567.63 -9613.12 -12799.31 -9709.08 -12998.26 -9861.74 -13150.92 -10060.69 -13246.88 -10292.37 -13279.62 -10541 -13246.88 -10789.63 -13150.92 -11021.31 -12998.26 -11220.26 -12799.31 -11372.92 -12567.63 -11468.88 -12319 -11501.62 -12070.37 -11468.88 -11838.69 -11372.92 -11639.74 -11220.26 -11487.08 -11021.31 -11391.12 -10789.63 -11358.38 -10541 -11391.12 -10292.37 -11487.08 -10060.69 -11639.74 -9861.74 -11838.69 -9709.08 -12070.37 -9613.12 -12319 -9580.38"/></g></mask><mask id="glU35-i_-EEk_clear-2" fill="#000" stroke="#000"><g><rect x="-22500" y="-12500" width="45000" height="30000" fill="#fff"/><path d="M 950.4 12257.4 45.6 12257.4 45.6 10252.6 153.38 10252.6 153.38 9802.56 123.44 9782.56 5.55 9606.12 -35.85 9398 5.55 9189.88 123.44 9013.44 299.88 8895.55 508 8854.15 716.12 8895.55 892.56 9013.44 1010.45 9189.88 1051.85 9398 1010.45 9606.12 892.56 9782.56 852.62 9809.25 852.62 10252.6 950.4 10252.6 950.4 12257.4"/><path d="M -299.6 12257.4 -1204.4 12257.4 -1204.4 10252.6 -1204.4 10252.6 -1278.43 10029.26 -1391.45 9860.12 -1432.85 9652 -1391.45 9443.88 -1273.56 9267.44 -1273.87 8962.16 -1311.63 8914.4 -2276.4 8914.4 -2276.4 8411.62 -3437.17 8411.62 -3437.17 8437 -3458.7 8545.24 -3520.01 8637 -3611.76 8698.31 -3720 8719.84 -5170 8719.84 -5278.24 8698.31 -5369.99 8637 -5431.3 8545.24 -5452.83 8437 -5452.83 7687 -5431.3 7578.76 -5369.99 7487.01 -5278.24 7425.7 -5170 7404.17 -3720 7404.17 -3611.76 7425.7 -3520.01 7487.01 -3458.7 7578.76 -3437.17 7687 -3437.17 7712.38 -2276.4 7712.38 -2276.4 7409.6 -771.6 7409.6 -771.6 8872.52 -771.6 8914.4 -711.42 9143.47 -680.88 9149.55 -504.44 9267.44 -386.55 9443.88 -345.15 9652 -386.55 9860.12 -470.88 9986.33 -470.88 10252.6 -299.6 10252.6 -299.6 12257.4"/></g></mask><rect x="-600" y="-600" width="1200" height="1200" id="glU35-i_-EEk_pad-10"/><rect x="-1000" y="-800" width="2000" height="1600" id="glU35-i_-EEk_pad-11"/><rect x="-575" y="-700" width="1150" height="1400" id="glU35-i_-EEk_pad-12"/><g id="glU35-i_-EEk_pad-13"><rect x="-700" y="-675" width="1400" height="1350"/><rect x="-525" y="-850" width="1050" height="1700"/><circle cx="525" cy="-675" r="175"/><circle cx="-525" cy="-675" r="175"/><circle cx="-525" cy="675" r="175"/><circle cx="525" cy="675" r="175"/></g><rect x="-600" y="-600" width="1200" height="1200" id="glU35-i_-EEk_pad-14"/><rect x="-735" y="-275" width="1470" height="550" id="glU35-i_-EEk_pad-15"/><g id="glU35-i_-EEk_pad-16"><polygon points="264.6,-995 264.6,995 -264.6,995 -264.6,-995"/><polygon points="315,-944.6 315,944.6 -315,944.6 -315,-944.6"/><circle cx="264.6" cy="944.6" r="50.4"/><circle cx="264.6" cy="-944.6" r="50.4"/><circle cx="-264.6" cy="-944.6" r="50.4"/><circle cx="-264.6" cy="944.6" r="50.4"/></g><rect x="-4800" y="-3000" width="9600" height="6000" id="glU35-i_-EEk_pad-17"/><rect x="-300" y="-850" width="600" height="1700" id="glU35-i_-EEk_pad-18"/><rect x="-500" y="-1400" width="1000" height="2800" id="glU35-i_-EEk_pad-19"/><rect x="-600" y="-900" width="1200" height="1800" id="glU35-i_-EEk_pad-20"/><rect x="-300" y="-775" width="600" height="1550" id="glU35-i_-EEk_pad-21"/><rect x="-275" y="-735" width="550" height="1470" id="glU35-i_-EEk_pad-22"/><g id="glU35-i_-EEk_pad-23"><rect x="-500" y="-725" width="1000" height="1450"/><rect x="-375" y="-850" width="750" height="1700"/><circle cx="375" cy="-725" r="125"/><circle cx="-375" cy="-725" r="125"/><circle cx="-375" cy="725" r="125"/><circle cx="375" cy="725" r="125"/></g><g id="glU35-i_-EEk_pad-24"><polygon points="725,500 725,-500 -725,-500 -725,500"/><polygon points="850,375 850,-375 -850,-375 -850,375"/><circle cx="-725" cy="-375" r="125"/><circle cx="-725" cy="375" r="125"/><circle cx="725" cy="375" r="125"/><circle cx="725" cy="-375" r="125"/></g><circle cx="0" cy="0" r="800" id="glU35-i_-EEk_pad-30"/><circle cx="0" cy="0" r="2000" id="glU35-i_-EEk_pad-31"/><circle cx="0" cy="0" r="1425" id="glU35-i_-EEk_pad-32"/><rect x="-800" y="-800" width="1600" height="1600" id="glU35-i_-EEk_pad-33"/><circle cx="0" cy="0" r="825" id="glU35-i_-EEk_pad-34"/><rect x="-825" y="-825" width="1650" height="1650" id="glU35-i_-EEk_pad-35"/><rect x="-800" y="-800" width="1600" height="1600" id="glU35-i_-EEk_pad-36"/><rect x="-1425" y="-1425" width="2850" height="2850" id="glU35-i_-EEk_pad-37"/><circle cx="0" cy="0" r="381" id="glU35-i_-EEk_pad-38"/><circle cx="0" cy="0" r="635" id="glU35-i_-EEk_pad-39"/></defs><g transform="translate(0,5000) scale(1,-1)" fill="currentColor" stroke="currentColor"><g mask="url(#glU35-i_-EEk_clear-2)"><g mask="url(#glU35-i_-EEk_clear-1)"><path d="M 22500 -12500 -22500 -12500 -22500 17500 22500 17500 22500 -12500"/></g><path d="M 12303.32 14253.25 12288.81 13996.44 12120.4 13881.4 11961.6 13881.4 11374.4 13881.4 11215.6 13881.4 10961.6 13881.4 10215.61 13881.4 10215.61 13881.4 10120.39 13881.4 10120.39 13881.4 9215.61 13881.4 9215.61 13881.4 9120.39 13881.4 9120.39 13881.4 8215.6 13881.4 8215.6 13303.62 5866.39 13303.62 5866.38 13303.62 5732.59 13277 5619.16 13201.22 5619.16 13201.21 364.16 7946.22 288.37 7832.79 261.76 7699 261.76 4158.38 7.76 4022.61 -45.88 4058.45 -254 4099.85 -462.12 4058.45 -638.56 3940.56 -705.17 3840.87 -1143 3840.87 -1252.02 3819.19 -1344.44 3757.44 -1344.44 3757.43 -1568.48 3533.4 -4999.7 3533.4 -5131.3 3787.4 -5085.55 3855.88 -5044.15 4064 -5085.55 4272.12 -5203.44 4448.56 -5379.88 4566.45 -5588 4607.85 -5796.12 4566.45 -5972.56 4448.56 -6219.44 4448.56 -6395.88 4566.45 -6604 4607.85 -6812.12 4566.45 -6988.56 4448.56 -7106.45 4272.12 -7147.85 4064 -7106.45 3855.88 -7060.7 3787.4 -7192.38 3533.4 -7545.4 3533.4 -7545.4 1934.53 -7589.96 1747.96 -7776.53 1703.4 -9375.4 1703.4 -9429.38 1935.04 -9429.38 2649.18 -6266.19 5812.38 -5452.83 5812.38 -5452.83 5787 -5431.3 5678.76 -5369.99 5587 -5278.24 5525.69 -5170 5504.16 -3720 5504.16 -3611.76 5525.69 -3520.01 5587 -3458.7 5678.76 -3437.17 5787 -3437.17 6537 -3458.7 6645.24 -3520.01 6736.99 -3611.76 6798.3 -3720 6819.83 -5170 6819.83 -5278.24 6798.3 -5369.99 6736.99 -5431.3 6645.24 -5452.83 6537 -5452.83 6511.62 -6410.99 6511.62 -6411 6511.62 -6435.74 6506.7 -6517.28 6573.55 -6623.99 6714.31 -6601.57 6827.07 -6601.57 9382.44 -5143.37 10840.64 -2454.4 10840.64 -2454.4 10252.6 -1549.6 10252.6 -1549.6 12257.39 -1549.6 12257.39 -1494.85 12488.72 2557.82 16541.38 10015.18 16541.38 12303.32 14253.25"/><path d="M 10318.38 11694.04 10318.38 11447.82 8872.18 10001.62 5140.26 10001.62 5050.99 10146.43 5030.1 10250.67 5605.82 10826.38 9122.21 10826.38 9256 10853 9369.43 10928.78 9915.21 11474.57 9915.22 11474.57 9991 11588 10013.26 11699.9 10108.66 11763.96 10158.16 11786.9 10318.38 11694.04"/><path d="M 8215.6 12026.6 9119.16 12026.6 9219.08 11925.7 9224.37 11772.6 8977.39 11525.62 5461 11525.62 5327.21 11499 5213.78 11423.22 5213.78 11423.21 1403.78 7613.22 1328 7499.79 1301.38 7366 1301.38 1287.82 1136.56 1123 864.17 1209.82 846.18 1315.75 858.59 1328.16 858.6 1328.16 934.38 1441.59 961 1575.38 961 1575.39 961 7554.18 6011.19 12604.38 8215.6 12604.38 8215.6 12026.6"/><path d="M -1079.96 1714.04 -1035.4 1527.46 -1035.4 261.47 -1076.31 233.46 -1393.44 257.56 -1569.88 375.45 -1778 416.85 -1986.12 375.45 -2162.56 257.56 -2280.45 81.12 -2321.85 -127 -2280.45 -335.12 -2162.56 -511.56 -2127.62 -534.91 -2127.62 -2076.86 -2117.92 -2125.63 -2244.46 -2336.54 -2293.58 -2379.64 -4492.2 -2379.64 -4569.25 -2125.64 -4468.59 -2058.38 -4350.7 -1881.94 -4309.3 -1673.82 -4350.7 -1465.7 -4427.34 -1350.99 -4339.42 -1136.05 -4311.14 -1102.5 -3980.61 -1102.5 -3908.56 -1210.34 -3732.12 -1328.24 -3524 -1369.63 -3315.88 -1328.24 -3139.44 -1210.34 -3021.55 -1033.91 -2980.15 -825.78 -3021.55 -617.66 -3139.44 -441.23 -3315.88 -323.33 -3524 -281.93 -3732.12 -323.33 -3851.75 -403.27 -4269.22 -403.27 -5044.9 372.41 -5007.49 590.38 -4971.87 658.59 -4822.44 758.44 -4704.55 934.88 -4703.39 940.7 -4434.12 1093.56 -4338.67 1067.86 -4261.51 952.39 -4085.07 834.5 -3876.95 793.1 -3668.83 834.5 -3492.39 952.39 -3254.46 851.29 -3129.12 767.55 -2921 726.15 -2712.88 767.55 -2536.44 885.44 -2418.55 1061.88 -2377.15 1270 -2418.55 1478.12 -2436.24 1504.6 -2300.47 1758.6 -1266.54 1758.6 -1079.96 1714.04"/><path d="M -10128.62 2607.43 -10128.62 699.19 -10102 565.39 -10026.22 451.97 -9803.03 228.78 -9689.61 153 -9555.82 126.38 -9375.4 126.38 -9375.4 -709.64 -10377.25 -709.64 -10474.27 -591.42 -10474.27 2663.89 -10382.62 2733.49 -10128.62 2607.43"/><path d="M 4790.15 8509 4831.55 8300.88 4888.36 8215.86 4923.19 7954.81 4878.37 7887.73 4862.63 7808.6 4862.63 6207.06 3689.78 5034.22 3614 4920.79 3587.38 4787 3587.38 -3429 3614 -3562.79 3689.78 -3676.22 4984.38 -4970.82 4984.38 -5224.3 4923.19 -5265.19 4878.37 -5332.27 4862.63 -5411.4 4862.63 -7300.6 4869 -7332.63 4778.68 -7503.07 4711.14 -7586.64 -1770.6 -7586.64 -1991.63 -7332.63 -1989.47 -7317.21 -1876.05 -7241.42 -1355.28 -6720.65 -1279.5 -6607.23 -1274.36 -6581.4 -1090.6 -6581.4 -1090.6 -5025.72 -1090.6 -5001.33 -1089.36 -4977.32 -1046.04 -4795.96 -864.68 -4752.64 -840.67 -4751.4 -816.28 -4751.4 -540.12 -4751.4 -540.12 -5091.19 -575.06 -5114.54 -692.95 -5290.98 -734.35 -5499.1 -692.95 -5707.22 -575.06 -5883.66 -398.62 -6001.55 -190.5 -6042.95 17.62 -6001.55 194.06 -5883.66 196.51 -5880 501.99 -5880 504.44 -5883.66 680.88 -6001.55 889 -6042.95 1097.12 -6001.55 1273.56 -5883.66 1391.45 -5707.22 1432.85 -5499.1 1419.23 -5430.62 1517.22 -5332.63 1593 -5219.21 1619.62 -5085.42 1619.62 -2371.57 1619.62 -2371.56 1593 -2237.77 1517.22 -2124.34 1517.21 -2124.33 1233.35 -1840.47 1119.92 -1764.68 986.13 -1738.07 752.97 -1738.07 739.4 -1729 739.4 -1496.6 -1035.4 -1496.6 -1035.4 -1948.67 -1266.4 -2048.69 -1428.38 -1916.8 -1428.38 -542.57 -1394.27 -512.11 -1393.44 -511.56 -1076.31 -487.46 -1035.4 -515.47 -1035.4 -751.4 739.4 -751.4 739.4 -673.62 1327 -673.62 1460.79 -647 1574.22 -571.22 2533.22 387.78 2609 501.21 2635.62 635 2635.62 6713.18 4555.94 8633.5 4790.15 8509"/><path d="M -5708.14 -707.56 -5708.14 -1065.35 -5681.53 -1199.14 -5605.74 -1312.57 -5371.7 -1546.61 -5397 -1673.82 -5355.6 -1881.94 -5321.12 -1933.55 -5418.52 -2219.79 -5432.08 -2223.19 -6803.26 -852 -6937.69 -762.18 -7096.26 -730.64 -7600.6 -730.64 -7600.6 48.6 -7600.6 923.38 -7339.08 923.38 -5708.14 -707.56"/></g><use xlink:href="#glU35-i_-EEk_pad-10" x="-18762" y="7620"/><use xlink:href="#glU35-i_-EEk_pad-10" x="-20862" y="7620"/><use xlink:href="#glU35-i_-EEk_pad-11" x="-15273" y="7874"/><use xlink:href="#glU35-i_-EEk_pad-11" x="-9873" y="7874"/><use xlink:href="#glU35-i_-EEk_pad-12" x="-12662" y="-1186"/><use xlink:href="#glU35-i_-EEk_pad-12" x="-14262" y="-3386"/><use xlink:href="#glU35-i_-EEk_pad-12" x="-12662" y="-3386"/><use xlink:href="#glU35-i_-EEk_pad-12" x="-14262" y="-1186"/><use xlink:href="#glU35-i_-EEk_pad-13" x="-14605" y="-5969"/><use xlink:href="#glU35-i_-EEk_pad-13" x="-14859" y="1778"/><use xlink:href="#glU35-i_-EEk_pad-13" x="-12319" y="-5969"/><use xlink:href="#glU35-i_-EEk_pad-13" x="-12573" y="1778"/><use xlink:href="#glU35-i_-EEk_pad-14" x="-1524" y="6062"/><use xlink:href="#glU35-i_-EEk_pad-14" x="-1524" y="8162"/><use xlink:href="#glU35-i_-EEk_pad-15" x="-8488" y="-1924"/><use xlink:href="#glU35-i_-EEk_pad-15" x="-148" y="-1124"/><use xlink:href="#glU35-i_-EEk_pad-15" x="-8488" y="1276"/><use xlink:href="#glU35-i_-EEk_pad-15" x="-8488" y="476"/><use xlink:href="#glU35-i_-EEk_pad-15" x="-8488" y="-324"/><use xlink:href="#glU35-i_-EEk_pad-15" x="-8488" y="-1124"/><use xlink:href="#glU35-i_-EEk_pad-15" x="-8488" y="-2724"/><use xlink:href="#glU35-i_-EEk_pad-15" x="-8488" y="-3524"/><use xlink:href="#glU35-i_-EEk_pad-15" x="-8488" y="-4324"/><use xlink:href="#glU35-i_-EEk_pad-15" x="-148" y="-4324"/><use xlink:href="#glU35-i_-EEk_pad-15" x="-148" y="-3524"/><use xlink:href="#glU35-i_-EEk_pad-15" x="-148" y="-2724"/><use xlink:href="#glU35-i_-EEk_pad-15" x="-148" y="-1924"/><use xlink:href="#glU35-i_-EEk_pad-15" x="-148" y="-324"/><use xlink:href="#glU35-i_-EEk_pad-15" x="-148" y="476"/><use xlink:href="#glU35-i_-EEk_pad-15" x="-148" y="1276"/><use xlink:href="#glU35-i_-EEk_pad-16" x="4064" y="-6356"/><use xlink:href="#glU35-i_-EEk_pad-16" x="15494" y="-6356"/><use xlink:href="#glU35-i_-EEk_pad-16" x="15494" y="6864"/><use xlink:href="#glU35-i_-EEk_pad-16" x="4064" y="6864"/><use xlink:href="#glU35-i_-EEk_pad-16" x="7874" y="-6356"/><use xlink:href="#glU35-i_-EEk_pad-16" x="6604" y="-6356"/><use xlink:href="#glU35-i_-EEk_pad-16" x="11684" y="6864"/><use xlink:href="#glU35-i_-EEk_pad-16" x="5334" y="-6356"/><use xlink:href="#glU35-i_-EEk_pad-16" x="5334" y="6864"/><use xlink:href="#glU35-i_-EEk_pad-16" x="6604" y="6864"/><use xlink:href="#glU35-i_-EEk_pad-16" x="7874" y="6864"/><use xlink:href="#glU35-i_-EEk_pad-16" x="9144" y="6864"/><use xlink:href="#glU35-i_-EEk_pad-16" x="10414" y="6864"/><use xlink:href="#glU35-i_-EEk_pad-16" x="12954" y="6864"/><use xlink:href="#glU35-i_-EEk_pad-16" x="14224" y="6864"/><use xlink:href="#glU35-i_-EEk_pad-16" x="14224" y="-6356"/><use xlink:href="#glU35-i_-EEk_pad-16" x="12954" y="-6356"/><use xlink:href="#glU35-i_-EEk_pad-16" x="11684" y="-6356"/><use xlink:href="#glU35-i_-EEk_pad-16" x="10414" y="-6356"/><use xlink:href="#glU35-i_-EEk_pad-16" x="9144" y="-6356"/><use xlink:href="#glU35-i_-EEk_pad-17" x="9779" y="254"/><use xlink:href="#glU35-i_-EEk_pad-18" x="1748" y="11255"/><use xlink:href="#glU35-i_-EEk_pad-18" x="-2002" y="11255"/><use xlink:href="#glU35-i_-EEk_pad-18" x="498" y="11255"/><use xlink:href="#glU35-i_-EEk_pad-18" x="-752" y="11255"/><use xlink:href="#glU35-i_-EEk_pad-19" x="-3852" y="14605"/><use xlink:href="#glU35-i_-EEk_pad-19" x="3598" y="14605"/><use xlink:href="#glU35-i_-EEk_pad-20" x="14968" y="15479"/><use xlink:href="#glU35-i_-EEk_pad-20" x="7368" y="15479"/><use xlink:href="#glU35-i_-EEk_pad-21" x="13668" y="12954"/><use xlink:href="#glU35-i_-EEk_pad-21" x="12668" y="12954"/><use xlink:href="#glU35-i_-EEk_pad-21" x="10668" y="12954"/><use xlink:href="#glU35-i_-EEk_pad-21" x="11668" y="12954"/><use xlink:href="#glU35-i_-EEk_pad-21" x="9668" y="12954"/><use xlink:href="#glU35-i_-EEk_pad-21" x="8668" y="12954"/><use xlink:href="#glU35-i_-EEk_pad-22" x="-7118" y="-5694"/><use xlink:href="#glU35-i_-EEk_pad-22" x="-6318" y="-5694"/><use xlink:href="#glU35-i_-EEk_pad-22" x="-5518" y="-5694"/><use xlink:href="#glU35-i_-EEk_pad-22" x="-4718" y="-5694"/><use xlink:href="#glU35-i_-EEk_pad-22" x="-3918" y="-5694"/><use xlink:href="#glU35-i_-EEk_pad-22" x="-3118" y="-5694"/><use xlink:href="#glU35-i_-EEk_pad-22" x="-2318" y="-5694"/><use xlink:href="#glU35-i_-EEk_pad-22" x="-1518" y="-5694"/><use xlink:href="#glU35-i_-EEk_pad-22" x="-1518" y="2646"/><use xlink:href="#glU35-i_-EEk_pad-22" x="-2318" y="2646"/><use xlink:href="#glU35-i_-EEk_pad-22" x="-3118" y="2646"/><use xlink:href="#glU35-i_-EEk_pad-22" x="-3918" y="2646"/><use xlink:href="#glU35-i_-EEk_pad-22" x="-4718" y="2646"/><use xlink:href="#glU35-i_-EEk_pad-22" x="-5518" y="2646"/><use xlink:href="#glU35-i_-EEk_pad-22" x="-6318" y="2646"/><use xlink:href="#glU35-i_-EEk_pad-22" x="-7118" y="2646"/><use xlink:href="#glU35-i_-EEk_pad-23" x="-18735" y="10414"/><use xlink:href="#glU35-i_-EEk_pad-23" x="-20635" y="10414"/><use xlink:href="#glU35-i_-EEk_pad-24" x="-4445" y="8062"/><use xlink:href="#glU35-i_-EEk_pad-24" x="-4445" y="6162"/><path d="M 2286 6858 5080 9652 M 2286 635 2286 6858 M 1327 -324 2286 635 M 5334 6184 5334 8509 M 5080 9652 9017 9652 10668 11303 M 984 476 1651 1143 1651 7366 5461 11176 M -3596.9 -752.89 -3524 -825.78 M -4414.03 -752.89 -3596.9 -752.89 M -5207 1143 -5117.18 1143 M -4718 1542.18 -4718 2646 M -5358.52 -1065.35 -5358.52 -562.74 M -7194.26 1273 -5358.52 -562.74 M -7033.5 1866.58 -4414.03 -752.89 M -5117.18 1143 -4718 1542.18 M -4853.15 -1673.82 -4853.15 -1570.72 M -5358.52 -1065.35 -4853.15 -1570.72 M -2622.1 -7067.1 -2549.2 -6994.2 -2123.27 -6994.2 -1602.5 -6473.43 M -6318 -5694 -6270.5 -5646.5 M -6270.5 -3984.5 -6223 -3937 M -6270.5 -5646.5 -6270.5 -3984.5 M -190.5 -5499.1 -190.5 -4366.5 -148 -4324 M 889 -5466.42 1270 -5085.42 M 540.5 -2008.5 619.68 -2087.69 M 1270 -5085.42 1270 -2371.56 M -148 -1924 -63.5 -2008.5 540.5 -2008.5 M 986.13 -2087.69 1270 -2371.56 M 889 -5499.1 889 -5466.42 M 619.68 -2087.69 986.13 -2087.69 M -1778 -2076.86 -1167.54 -2687.31 M -184.69 -2687.31 -148 -2724 M -1778 -2076.86 -1778 -127 M -1167.54 -2687.31 -184.69 -2687.31 M -148 476 984 476 M -148 -324 1327 -324 M 5866.38 12954 8668 12954 M 312 1276 611.38 1575.38 M 611.38 7699 5866.38 12954 M -148 1276 312 1276 M 611.38 1575.38 611.38 7699 M -2324.45 -5687.55 -2318 -5694 M -2324.45 -5687.55 -2324.45 -4242.35 M -2330.9 -4235.9 -2324.45 -4242.35 M 11557 11049 11612.5 11104.5 11612.5 12898.5 11668 12954 M 10668 11303 10668 12954 M 9668 11721.79 9668 12954 M 9122.21 11176 9668 11721.79 M 5461 11176 9122.21 11176 M 3937 4787 5334 6184 M 3937 -3429 3937 4787 M 503 9403 508 9398 M 503 9403 503 11250 M 498 11255 503 11250 M -889 9652 -820.5 9720.5 -820.5 11186.5 -752 11255 M 13262.1 -4771.9 13643.1 -4771.9 M 12979.35 -6330.65 12979.35 -5054.65 M 12954 -6356 12979.35 -6330.65 M 12979.35 -5054.65 13262.1 -4771.9 M 13643.1 -4771.9 13716 -4699 M 11684 -6356 11684 -4445 M -5334 -7150.1 -5334 -7047 M -5433.5 -6947.5 -5334 -7047 M -5433.5 -6947.5 -5433.5 -5778.5 M -5518 -5694 -5433.5 -5778.5 M -1602.5 -6473.43 -1602.5 -5778.5 -1518 -5694 M -8485 1273 -7194.26 1273 M -8488 1276 -8485 1273 M 7874 -6356 7998.5 -6231.5 7998.5 -4931.6 8128 -4802.1 8128 -4699 M 12668 12954 12668 14383 M 10160 16891 12668 14383 M 2413 16891 10160 16891 M -2002 12476 2413 16891 M -2002 11255 -2002 12476 M -16891 11684 -13589 14986 M -18542 5334 -16891 6985 M -18002.79 10213.39 -16891 9101.6 M -18534.39 10213.39 -18002.79 10213.39 M -16891 9101.6 -16891 11684 M -18735 10414 -18534.39 10213.39 M -16891 6985 -16891 9101.6 M -3118 2646 -3033.5 2561.5 M -3033.5 1485.6 -3033.5 2561.5 M -3033.5 1485.6 -2921 1373.1 M -2921 1270 -2921 1373.1 M -12662 -3386 -11081.75 -3386 -10143.75 -4324 -8488 -4324 M -12319 -5969 -12319 -3729 M -12662 -3386 -12319 -3729 M 6604 -6356 6604 -4064 M -6402.5 2730.5 -6318 2646 M -6402.5 2730.5 -6402.5 3759.4 M -6604 3960.9 -6604 4064 M -6604 3960.9 -6402.5 3759.4 M -3897.48 1357.48 -3876.95 1336.95 M -3897.48 1357.48 -3897.48 2625.47 M -3918 2646 -3897.48 2625.47 M -13330.85 -2277.08 -11436.32 -2277.08 M -13877.5 -1730.43 -13330.85 -2277.08 M -11436.32 -2277.08 -10189.41 -3524 M -14262 -1186 -13877.5 -1570.5 M -13877.5 -1730.43 -13877.5 -1570.5 M -10189.41 -3524 -8488 -3524 M -14262 85.5 -13229 1118.5 M -13082.5 1118.5 -12573 1628 -12573 1778 M -14262 -1186 -14262 85.5 M -13229 1118.5 -13082.5 1118.5 M -9873 11082 -8509 12446 M -9873 7874 -9873 11082 M -6411 6162 -4445 6162 M -9779 2794 -6411 6162 M -1624 8062 -1524 8162 M -4445 8062 -1624 8062 M -20862 7620 -20635 7847 -20635 10414 M 5334 -6356 5334 -4826 M 3937 -3429 5334 -4826 M -9555.82 476 -8488 476 M -9779 699.19 -9555.82 476 M -9779 699.19 -9779 2794 M -7033.5 1866.58 -7033.5 2561.5 M -7118 2646 -7033.5 2561.5 M 13017.5 5143.5 13017.5 6800.5 M -8128 -5715 -7139 -5715 -7118 -5694 M -5588 4064 -5553 4029 M -5553 2681 -5518 2646 M -5553 2681 -5553 4029 M 9268.5 5684.18 9491.69 5461 M 9268.5 5684.18 9268.5 6739.5 M 9491.69 5461 9615.85 5461 M 9144 6864 9268.5 6739.5 M 7874 5207 7874 6864 M 6477 5143.5 6540.5 5207 6540.5 6800.5 6604 6864" fill="none" stroke-width="381"/><path d="M -3788.92 -5564.92 -3788.92 -4296.92 -3691.72 -4199.72 M -3918 -5694 -3788.92 -5564.92 M -1143 3556 -254 3556 M -1518 2646 -1370 2794 M -1370 3329 -1143 3556 M -1370 2794 -1370 3329 M 13017.5 5143.5 13081 5080 M 12954 6864 13017.5 6800.5 M 9741.43 5371.57 9838.62 5274.37" fill="none" stroke-width="254"/><path d="M 10516 -10389 10541 -10414 M 10516 -10389 10516 -9246 M -3195.74 -8001 9271 -8001 10516 -9246 M 11239.6 -11620.4 12237.06 -10622.94 M 12872.06 -10622.94 13081 -10414 M -825.6 -11620.4 11239.6 -11620.4 M 12237.06 -10622.94 12872.06 -10622.94 M -2032 -10414 -825.6 -11620.4 M -2159 -10541 -2032 -10414 M -7239 -10541 -2159 -10541 M -4697 -6499.74 -3195.74 -8001 M -4697 -6499.74 -4697 -5715 M -1196 -3503 -169 -3503 M -5447.26 -2794 -1905 -2794 -1196 -3503 M -5315 11255 -2002 11255 M -7015.93 9554.07 -5315 11255 M -7015.93 6827.07 -7015.93 9554.07 M -10888.64 -591.42 -10888.64 2954.36 -7015.93 6827.07 M -11303 -1005.78 -10888.64 -591.42 M -11303 -1016 -11234.27 -1016 -11126.27 -1124 M -11303 -1016 -11303 -1005.78 M -169 -3503 -148 -3524 M -8488 -1124 -8467 -1145 M -11126.27 -1124 -8488 -1124 M -8467 -1145 -7096.26 -1145 -5447.26 -2794 M 11684 6184 11684 6864 M 11295.95 5795.94 11684 6184 M 11249.2 5795.94 11295.95 5795.94 M 14497.68 5099.68 14497.68 5168.41 M 14285 5381.1 14497.68 5168.41 M 14285 5381.1 14285 6803 M -4718 -5694 -4697 -5715 M 14224 6864 14285 6803 M 15699.4 -4874.6 15748 -4826 M 15025.4 -4874.6 15699.4 -4874.6 M 14224 -5676 15025.4 -4874.6 M 14224 -6356 14224 -5676" fill="none" stroke-width="508"/><path d="M 11391 -3429 14859 -3429 M 9144 -6356 9144 -5676 11391 -3429 M 16891 -1397 16891 635 M 14859 -3429 16891 -1397 M 19050 2794 20574 2794 M 16891 635 19050 2794 M 10414 6864 10416.5 6866.5 10416.5 7701.5 M 10475 7760 10475 8391.02 M 10416.5 7701.5 10475 7760 M 17145 8763 20574 5334 M 10475 8391.02 10846.98 8763 17145 8763 M 20574 -5334 20574 254 M 17653 -8255 20574 -5334 M 11303 -8255 17653 -8255 M 10414 -7366 10414 -6356 M 10414 -7366 11303 -8255" fill="none" stroke-width="635"/><path d="M -8407.4 -8153.4 -8382 -8128 M -15428.6 -8153.4 -8407.4 -8153.4 M -19558 -4024 -15428.6 -8153.4" fill="none" stroke-width="762"/><use xlink:href="#glU35-i_-EEk_pad-30" x="5588" y="-10414"/><use xlink:href="#glU35-i_-EEk_pad-30" x="-14859" y="-10541"/><use xlink:href="#glU35-i_-EEk_pad-30" x="3048" y="-10414"/><use xlink:href="#glU35-i_-EEk_pad-30" x="508" y="-10414"/><use xlink:href="#glU35-i_-EEk_pad-30" x="13081" y="-10414"/><use xlink:href="#glU35-i_-EEk_pad-30" x="-9779" y="-10541"/><use xlink:href="#glU35-i_-EEk_pad-30" x="-12319" y="-10541"/><use xlink:href="#glU35-i_-EEk_pad-30" x="10541" y="-10414"/><use xlink:href="#glU35-i_-EEk_pad-30" x="20574" y="2794"/><use xlink:href="#glU35-i_-EEk_pad-30" x="20574" y="5334"/><use xlink:href="#glU35-i_-EEk_pad-31" x="20000" y="15000"/><use xlink:href="#glU35-i_-EEk_pad-31" x="-20000" y="15000"/><use xlink:href="#glU35-i_-EEk_pad-31" x="-20000" y="-10000"/><use xlink:href="#glU35-i_-EEk_pad-31" x="20000" y="-10000"/><use xlink:href="#glU35-i_-EEk_pad-32" x="-19558" y="976"/><use xlink:href="#glU35-i_-EEk_pad-33" x="15621" y="-10414"/><use xlink:href="#glU35-i_-EEk_pad-33" x="-2032" y="-10414"/><use xlink:href="#glU35-i_-EEk_pad-33" x="-7239" y="-10541"/><use xlink:href="#glU35-i_-EEk_pad-34" x="-8509" y="14986"/><use xlink:href="#glU35-i_-EEk_pad-34" x="-13589" y="14986"/><use xlink:href="#glU35-i_-EEk_pad-34" x="-11049" y="14986"/><use xlink:href="#glU35-i_-EEk_pad-34" x="-8509" y="12446"/><use xlink:href="#glU35-i_-EEk_pad-34" x="-11049" y="12446"/><use xlink:href="#glU35-i_-EEk_pad-35" x="-13589" y="12446"/><use xlink:href="#glU35-i_-EEk_pad-36" x="20574" y="254"/><use xlink:href="#glU35-i_-EEk_pad-37" x="-19558" y="-4024"/><use xlink:href="#glU35-i_-EEk_pad-38" x="5334" y="8509"/><use xlink:href="#glU35-i_-EEk_pad-38" x="6350" y="10414"/><use xlink:href="#glU35-i_-EEk_pad-38" x="6858" y="12065"/><use xlink:href="#glU35-i_-EEk_pad-38" x="-6790.63" y="-186.63"/><use xlink:href="#glU35-i_-EEk_pad-38" x="-5207" y="1143"/><use xlink:href="#glU35-i_-EEk_pad-38" x="-4853.15" y="-1673.82"/><use xlink:href="#glU35-i_-EEk_pad-38" x="-3691.72" y="-4199.72"/><use xlink:href="#glU35-i_-EEk_pad-38" x="-2622.1" y="-7067.1"/><use xlink:href="#glU35-i_-EEk_pad-38" x="-6223" y="-3937"/><use xlink:href="#glU35-i_-EEk_pad-38" x="-190.5" y="-5499.1"/><use xlink:href="#glU35-i_-EEk_pad-38" x="19431" y="-4572"/><use xlink:href="#glU35-i_-EEk_pad-38" x="-10060.02" y="-191.13"/><use xlink:href="#glU35-i_-EEk_pad-38" x="8128" y="-2286"/><use xlink:href="#glU35-i_-EEk_pad-38" x="-2667" y="254"/><use xlink:href="#glU35-i_-EEk_pad-38" x="-2330.9" y="-4235.9"/><use xlink:href="#glU35-i_-EEk_pad-38" x="11557" y="11049"/><use xlink:href="#glU35-i_-EEk_pad-38" x="-1778" y="-127"/><use xlink:href="#glU35-i_-EEk_pad-38" x="-889" y="9652"/><use xlink:href="#glU35-i_-EEk_pad-38" x="508" y="9398"/><use xlink:href="#glU35-i_-EEk_pad-38" x="13716" y="-4699"/><use xlink:href="#glU35-i_-EEk_pad-38" x="11684" y="-4445"/><use xlink:href="#glU35-i_-EEk_pad-38" x="889" y="-5499.1"/><use xlink:href="#glU35-i_-EEk_pad-38" x="-5334" y="-7150.1"/><use xlink:href="#glU35-i_-EEk_pad-38" x="-8382" y="-8128"/><use xlink:href="#glU35-i_-EEk_pad-38" x="-11684" y="6350"/><use xlink:href="#glU35-i_-EEk_pad-38" x="8128" y="-4699"/><use xlink:href="#glU35-i_-EEk_pad-38" x="-11303" y="-1016"/><use xlink:href="#glU35-i_-EEk_pad-38" x="-3524" y="-825.78"/><use xlink:href="#glU35-i_-EEk_pad-38" x="-254" y="3556"/><use xlink:href="#glU35-i_-EEk_pad-38" x="-2921" y="1270"/><use xlink:href="#glU35-i_-EEk_pad-38" x="6604" y="-4064"/><use xlink:href="#glU35-i_-EEk_pad-38" x="-6604" y="4064"/><use xlink:href="#glU35-i_-EEk_pad-38" x="11249.2" y="5795.94"/><use xlink:href="#glU35-i_-EEk_pad-38" x="-3876.95" y="1336.95"/><use xlink:href="#glU35-i_-EEk_pad-38" x="14497.68" y="5099.68"/><use xlink:href="#glU35-i_-EEk_pad-38" x="13081" y="5080"/><use xlink:href="#glU35-i_-EEk_pad-38" x="-8128" y="-5715"/><use xlink:href="#glU35-i_-EEk_pad-38" x="-5588" y="4064"/><use xlink:href="#glU35-i_-EEk_pad-38" x="9838.62" y="5274.37"/><use xlink:href="#glU35-i_-EEk_pad-38" x="7874" y="5207"/><use xlink:href="#glU35-i_-EEk_pad-38" x="6477" y="5143.5"/><use xlink:href="#glU35-i_-EEk_pad-38" x="15748" y="-4826"/><use xlink:href="#glU35-i_-EEk_pad-39" x="-18542" y="5334"/></g></svg>